<svg width="1440" height="118" viewBox="0 0 1440 118" fill="none" xmlns="http://www.w3.org/2000/svg">
<rect width="1440" height="120" fill="#452C78"/>
<path opacity="0.8" d="M603.028 35.144C604.552 35.144 605.512 34.556 606.388 33.668L605.764 33.056C604.96 33.824 604.204 34.268 603.052 34.268C601.204 34.268 599.8 32.744 599.8 30.8V30.776C599.8 28.844 601.192 27.332 603.052 27.332C604.192 27.332 604.984 27.812 605.692 28.484L606.34 27.788C605.5 26.996 604.588 26.456 603.064 26.456C600.592 26.456 598.816 28.424 598.816 30.8V30.824C598.816 33.236 600.604 35.144 603.028 35.144ZM610.486 35.144C612.358 35.144 613.738 33.656 613.738 31.904V31.88C613.738 30.128 612.37 28.664 610.51 28.664C608.638 28.664 607.27 30.152 607.27 31.904V31.928C607.27 33.68 608.626 35.144 610.486 35.144ZM610.51 34.316C609.202 34.316 608.218 33.236 608.218 31.904V31.88C608.218 30.572 609.142 29.48 610.486 29.48C611.794 29.48 612.79 30.572 612.79 31.904V31.928C612.79 33.236 611.854 34.316 610.51 34.316ZM615.292 36.92H616.216V33.812C616.696 34.508 617.44 35.132 618.592 35.132C620.092 35.132 621.556 33.932 621.556 31.904V31.88C621.556 29.84 620.08 28.664 618.592 28.664C617.452 28.664 616.72 29.3 616.216 30.044V28.796H615.292V36.92ZM618.424 34.304C617.272 34.304 616.18 33.344 616.18 31.904V31.88C616.18 30.464 617.272 29.492 618.424 29.492C619.6 29.492 620.608 30.428 620.608 31.892V31.916C620.608 33.416 619.624 34.304 618.424 34.304ZM623.796 36.956C624.732 36.956 625.332 36.488 625.86 35.204L628.464 28.796H627.48L625.488 33.968L623.232 28.796H622.212L625.032 34.976C624.66 35.852 624.312 36.14 623.76 36.14C623.364 36.14 623.088 36.068 622.788 35.912L622.476 36.644C622.896 36.848 623.28 36.956 623.796 36.956ZM629.806 35H630.73V32.528C630.73 30.656 631.834 29.684 633.19 29.684H633.262V28.688C632.086 28.64 631.186 29.384 630.73 30.416V28.796H629.806V35ZM634.573 27.44H635.629V26.42H634.573V27.44ZM634.633 35H635.557V28.796H634.633V35ZM640.33 36.944C641.314 36.944 642.142 36.668 642.694 36.116C643.198 35.612 643.486 34.88 643.486 33.92V28.796H642.562V29.912C642.058 29.24 641.302 28.664 640.138 28.664C638.662 28.664 637.222 29.78 637.222 31.592V31.616C637.222 33.404 638.65 34.52 640.138 34.52C641.278 34.52 642.034 33.932 642.574 33.212V33.944C642.574 35.396 641.686 36.152 640.318 36.152C639.43 36.152 638.638 35.876 637.93 35.36L637.51 36.08C638.338 36.656 639.298 36.944 640.33 36.944ZM640.318 33.704C639.166 33.704 638.17 32.84 638.17 31.592V31.568C638.17 30.296 639.142 29.48 640.318 29.48C641.494 29.48 642.598 30.308 642.598 31.58V31.604C642.598 32.852 641.494 33.704 640.318 33.704ZM645.43 35H646.354V31.448C646.354 30.284 647.146 29.504 648.214 29.504C649.306 29.504 649.93 30.224 649.93 31.376V35H650.854V31.148C650.854 29.672 649.978 28.664 648.478 28.664C647.41 28.664 646.762 29.204 646.354 29.876V26.24H645.43V35ZM654.781 35.108C655.225 35.108 655.573 35.012 655.897 34.844V34.052C655.573 34.208 655.309 34.268 654.997 34.268C654.373 34.268 653.953 33.992 653.953 33.236V29.612H655.921V28.796H653.953V26.924H653.029V28.796H652.165V29.612H653.029V33.356C653.029 34.616 653.785 35.108 654.781 35.108ZM661.07 35H661.994V28.112L667.418 35H668.174V26.6H667.25V33.332L661.958 26.6H661.07V35ZM673.059 35H674.019V31.664L677.511 26.6H676.407L673.551 30.8L670.719 26.6H669.567L673.059 31.676V35ZM682.26 35.132C684.36 35.132 685.764 33.86 685.764 31.412V26.6H684.816V31.484C684.816 33.32 683.832 34.256 682.284 34.256C680.676 34.256 679.716 33.236 679.716 31.424V26.6H678.768V31.484C678.768 33.86 680.184 35.132 682.26 35.132ZM694.243 35.12C695.911 35.12 697.111 34.184 697.111 32.744V32.72C697.111 31.436 696.247 30.752 694.375 30.344C692.527 29.948 692.095 29.504 692.095 28.712V28.688C692.095 27.932 692.791 27.332 693.883 27.332C694.747 27.332 695.527 27.608 696.307 28.244L696.859 27.512C696.007 26.828 695.131 26.48 693.907 26.48C692.311 26.48 691.147 27.452 691.147 28.772V28.796C691.147 30.176 692.035 30.8 693.967 31.22C695.731 31.592 696.151 32.036 696.151 32.816V32.84C696.151 33.668 695.407 34.268 694.279 34.268C693.115 34.268 692.275 33.872 691.399 33.08L690.811 33.776C691.819 34.676 692.911 35.12 694.243 35.12ZM698.763 35H699.687V31.448C699.687 30.284 700.479 29.504 701.547 29.504C702.639 29.504 703.263 30.224 703.263 31.376V35H704.187V31.148C704.187 29.672 703.311 28.664 701.811 28.664C700.743 28.664 700.095 29.204 699.687 29.876V26.24H698.763V35ZM707.886 35.132C708.978 35.132 709.686 34.628 710.118 34.076V35H711.03V31.208C711.03 30.416 710.814 29.816 710.382 29.384C709.938 28.94 709.254 28.7 708.378 28.7C707.466 28.7 706.806 28.916 706.122 29.228L706.398 29.984C706.974 29.72 707.55 29.54 708.282 29.54C709.446 29.54 710.118 30.116 710.118 31.22V31.412C709.566 31.256 709.014 31.148 708.222 31.148C706.65 31.148 705.57 31.844 705.57 33.176V33.2C705.57 34.472 706.722 35.132 707.886 35.132ZM708.066 34.388C707.226 34.388 706.506 33.932 706.506 33.152V33.128C706.506 32.384 707.166 31.88 708.318 31.88C709.074 31.88 709.674 32.012 710.13 32.144V32.72C710.13 33.704 709.206 34.388 708.066 34.388ZM712.867 35H713.791V31.448C713.791 30.284 714.583 29.504 715.651 29.504C716.743 29.504 717.367 30.224 717.367 31.376V35H718.291V31.148C718.291 29.672 717.415 28.664 715.915 28.664C714.847 28.664 714.199 29.204 713.791 29.876V28.796H712.867V35ZM722.89 36.944C723.874 36.944 724.702 36.668 725.254 36.116C725.758 35.612 726.046 34.88 726.046 33.92V28.796H725.122V29.912C724.618 29.24 723.862 28.664 722.698 28.664C721.222 28.664 719.782 29.78 719.782 31.592V31.616C719.782 33.404 721.21 34.52 722.698 34.52C723.838 34.52 724.594 33.932 725.134 33.212V33.944C725.134 35.396 724.246 36.152 722.878 36.152C721.99 36.152 721.198 35.876 720.49 35.36L720.07 36.08C720.898 36.656 721.858 36.944 722.89 36.944ZM722.878 33.704C721.726 33.704 720.73 32.84 720.73 31.592V31.568C720.73 30.296 721.702 29.48 722.878 29.48C724.054 29.48 725.158 30.308 725.158 31.58V31.604C725.158 32.852 724.054 33.704 722.878 33.704ZM727.99 35H728.914V31.448C728.914 30.284 729.706 29.504 730.774 29.504C731.866 29.504 732.49 30.224 732.49 31.376V35H733.414V31.148C733.414 29.672 732.538 28.664 731.038 28.664C729.97 28.664 729.322 29.204 728.914 29.876V26.24H727.99V35ZM737.113 35.132C738.205 35.132 738.913 34.628 739.345 34.076V35H740.257V31.208C740.257 30.416 740.041 29.816 739.609 29.384C739.165 28.94 738.481 28.7 737.605 28.7C736.693 28.7 736.033 28.916 735.349 29.228L735.625 29.984C736.201 29.72 736.777 29.54 737.509 29.54C738.673 29.54 739.345 30.116 739.345 31.22V31.412C738.793 31.256 738.241 31.148 737.449 31.148C735.877 31.148 734.797 31.844 734.797 33.176V33.2C734.797 34.472 735.949 35.132 737.113 35.132ZM737.293 34.388C736.453 34.388 735.733 33.932 735.733 33.152V33.128C735.733 32.384 736.393 31.88 737.545 31.88C738.301 31.88 738.901 32.012 739.357 32.144V32.72C739.357 33.704 738.433 34.388 737.293 34.388ZM742.118 27.44H743.174V26.42H742.118V27.44ZM742.178 35H743.102V28.796H742.178V35ZM750.98 35H751.94V27.476H754.76V26.6H748.16V27.476H750.98V35ZM755.294 32.276H760.214C760.226 32.132 760.226 32.036 760.226 31.952C760.226 30.128 759.17 28.664 757.334 28.664C755.618 28.664 754.358 30.104 754.358 31.904C754.358 33.836 755.75 35.144 757.454 35.144C758.63 35.144 759.386 34.676 760.01 33.98L759.434 33.464C758.93 33.992 758.33 34.34 757.478 34.34C756.386 34.34 755.426 33.584 755.294 32.276ZM755.294 31.532C755.426 30.332 756.242 29.444 757.31 29.444C758.534 29.444 759.182 30.404 759.29 31.532H755.294ZM764.519 35.144C765.683 35.144 766.427 34.64 767.051 33.944L766.463 33.392C765.971 33.92 765.359 34.316 764.567 34.316C763.271 34.316 762.287 33.248 762.287 31.904V31.88C762.287 30.548 763.247 29.48 764.507 29.48C765.347 29.48 765.899 29.9 766.391 30.416L767.003 29.768C766.427 29.156 765.695 28.664 764.519 28.664C762.707 28.664 761.339 30.152 761.339 31.904V31.928C761.339 33.668 762.707 35.144 764.519 35.144ZM768.459 35H769.383V31.448C769.383 30.284 770.175 29.504 771.243 29.504C772.335 29.504 772.959 30.224 772.959 31.376V35H773.883V31.148C773.883 29.672 773.007 28.664 771.507 28.664C770.439 28.664 769.791 29.204 769.383 29.876V26.24H768.459V35ZM775.733 35H776.657V31.448C776.657 30.284 777.449 29.504 778.517 29.504C779.609 29.504 780.233 30.224 780.233 31.376V35H781.157V31.148C781.157 29.672 780.281 28.664 778.781 28.664C777.713 28.664 777.065 29.204 776.657 29.876V28.796H775.733V35ZM785.84 35.144C787.712 35.144 789.092 33.656 789.092 31.904V31.88C789.092 30.128 787.724 28.664 785.864 28.664C783.992 28.664 782.624 30.152 782.624 31.904V31.928C782.624 33.68 783.98 35.144 785.84 35.144ZM785.864 34.316C784.556 34.316 783.572 33.236 783.572 31.904V31.88C783.572 30.572 784.496 29.48 785.84 29.48C787.148 29.48 788.144 30.572 788.144 31.904V31.928C788.144 33.236 787.208 34.316 785.864 34.316ZM790.73 35H791.654V26.24H790.73V35ZM796.51 35.144C798.382 35.144 799.762 33.656 799.762 31.904V31.88C799.762 30.128 798.394 28.664 796.534 28.664C794.662 28.664 793.294 30.152 793.294 31.904V31.928C793.294 33.68 794.65 35.144 796.51 35.144ZM796.534 34.316C795.226 34.316 794.242 33.236 794.242 31.904V31.88C794.242 30.572 795.166 29.48 796.51 29.48C797.818 29.48 798.814 30.572 798.814 31.904V31.928C798.814 33.236 797.878 34.316 796.534 34.316ZM804.064 36.944C805.048 36.944 805.876 36.668 806.428 36.116C806.932 35.612 807.22 34.88 807.22 33.92V28.796H806.296V29.912C805.792 29.24 805.036 28.664 803.872 28.664C802.396 28.664 800.956 29.78 800.956 31.592V31.616C800.956 33.404 802.384 34.52 803.872 34.52C805.012 34.52 805.768 33.932 806.308 33.212V33.944C806.308 35.396 805.42 36.152 804.052 36.152C803.164 36.152 802.372 35.876 801.664 35.36L801.244 36.08C802.072 36.656 803.032 36.944 804.064 36.944ZM804.052 33.704C802.9 33.704 801.904 32.84 801.904 31.592V31.568C801.904 30.296 802.876 29.48 804.052 29.48C805.228 29.48 806.332 30.308 806.332 31.58V31.604C806.332 32.852 805.228 33.704 804.052 33.704ZM810.125 36.956C811.061 36.956 811.661 36.488 812.189 35.204L814.793 28.796H813.809L811.817 33.968L809.561 28.796H808.541L811.361 34.976C810.989 35.852 810.641 36.14 810.089 36.14C809.693 36.14 809.417 36.068 809.117 35.912L808.805 36.644C809.225 36.848 809.609 36.956 810.125 36.956ZM822.648 35.12C824.316 35.12 825.516 34.184 825.516 32.744V32.72C825.516 31.436 824.652 30.752 822.78 30.344C820.932 29.948 820.5 29.504 820.5 28.712V28.688C820.5 27.932 821.196 27.332 822.288 27.332C823.152 27.332 823.932 27.608 824.712 28.244L825.264 27.512C824.412 26.828 823.536 26.48 822.312 26.48C820.716 26.48 819.552 27.452 819.552 28.772V28.796C819.552 30.176 820.44 30.8 822.372 31.22C824.136 31.592 824.556 32.036 824.556 32.816V32.84C824.556 33.668 823.812 34.268 822.684 34.268C821.52 34.268 820.68 33.872 819.804 33.08L819.216 33.776C820.224 34.676 821.316 35.12 822.648 35.12ZM827.72 32.276H832.64C832.652 32.132 832.652 32.036 832.652 31.952C832.652 30.128 831.596 28.664 829.76 28.664C828.044 28.664 826.784 30.104 826.784 31.904C826.784 33.836 828.176 35.144 829.88 35.144C831.056 35.144 831.812 34.676 832.436 33.98L831.86 33.464C831.356 33.992 830.756 34.34 829.904 34.34C828.812 34.34 827.852 33.584 827.72 32.276ZM827.72 31.532C827.852 30.332 828.668 29.444 829.736 29.444C830.96 29.444 831.608 30.404 831.716 31.532H827.72ZM834.149 35H835.073V32.528C835.073 30.656 836.177 29.684 837.533 29.684H837.605V28.688C836.429 28.64 835.529 29.384 835.073 30.416V28.796H834.149V35ZM840.969 35.048H841.785L844.485 28.796H843.489L841.389 33.944L839.301 28.796H838.281L840.969 35.048ZM845.84 27.44H846.896V26.42H845.84V27.44ZM845.9 35H846.824V28.796H845.9V35ZM851.644 35.144C852.808 35.144 853.552 34.64 854.176 33.944L853.588 33.392C853.096 33.92 852.484 34.316 851.692 34.316C850.396 34.316 849.412 33.248 849.412 31.904V31.88C849.412 30.548 850.372 29.48 851.632 29.48C852.472 29.48 853.024 29.9 853.516 30.416L854.128 29.768C853.552 29.156 852.82 28.664 851.644 28.664C849.832 28.664 848.464 30.152 848.464 31.904V31.928C848.464 33.668 849.832 35.144 851.644 35.144ZM855.96 32.276H860.88C860.892 32.132 860.892 32.036 860.892 31.952C860.892 30.128 859.836 28.664 858 28.664C856.284 28.664 855.024 30.104 855.024 31.904C855.024 33.836 856.416 35.144 858.12 35.144C859.296 35.144 860.052 34.676 860.676 33.98L860.1 33.464C859.596 33.992 858.996 34.34 858.144 34.34C857.052 34.34 856.092 33.584 855.96 32.276ZM855.96 31.532C856.092 30.332 856.908 29.444 857.976 29.444C859.2 29.444 859.848 30.404 859.956 31.532H855.96ZM864.441 35.12C865.677 35.12 866.649 34.436 866.649 33.26V33.236C866.649 32.12 865.617 31.748 864.657 31.46C863.829 31.208 863.061 30.98 863.061 30.392V30.368C863.061 29.852 863.529 29.468 864.261 29.468C864.861 29.468 865.521 29.696 866.097 30.068L866.517 29.372C865.881 28.952 865.041 28.688 864.285 28.688C863.061 28.688 862.173 29.396 862.173 30.464V30.488C862.173 31.628 863.253 31.964 864.225 32.24C865.041 32.468 865.773 32.708 865.773 33.332V33.356C865.773 33.956 865.233 34.34 864.489 34.34C863.757 34.34 863.013 34.052 862.341 33.548L861.873 34.208C862.569 34.772 863.553 35.12 864.441 35.12Z" fill="white"/>
<path opacity="0.8" d="M578.07 24.9688C574.324 24.9688 571.289 28.0312 571.289 31.75C571.289 35.4961 574.324 38.5312 578.07 38.5312C581.789 38.5312 584.851 35.4961 584.851 31.75C584.851 28.0312 581.789 24.9688 578.07 24.9688ZM578.07 37.2188C575.035 37.2188 572.601 34.7852 572.601 31.75C572.601 28.7422 575.035 26.2812 578.07 26.2812C581.078 26.2812 583.539 28.7422 583.539 31.75C583.539 34.7852 581.078 37.2188 578.07 37.2188ZM580.996 34.457C581.05 34.4297 581.078 34.3203 581.078 34.2383C581.078 34.1836 581.05 34.1016 581.023 34.0469L580.476 33.3086C580.367 33.1445 580.148 33.1172 579.984 33.2539C579.738 33.4727 579.082 33.9922 578.207 33.9922C576.785 33.9922 576.047 32.8438 576.047 31.7227C576.047 30.4922 576.867 29.5078 578.179 29.5078C579 29.5078 579.629 29.9453 579.875 30.1367C580.011 30.2461 580.258 30.2188 580.34 30.0547L580.859 29.2891C580.886 29.2344 580.914 29.1523 580.914 29.0977C580.914 29.043 580.859 28.9336 580.804 28.8789C580.558 28.6328 579.656 27.9219 578.125 27.9219C575.965 27.9219 574.297 29.5625 574.297 31.7227C574.297 33.9102 575.883 35.6055 578.152 35.6055C579.738 35.6055 580.722 34.7305 580.996 34.457Z" fill="white"/>
<rect opacity="0.03" x="804" y="55" width="40" height="40" rx="3" fill="white"/>
<path opacity="0.8" d="M829.25 67.75H818.75C817.766 67.75 817 68.543 817 69.5V77.375C817 78.3594 817.766 79.125 818.75 79.125H821.375V81.4219C821.375 81.6406 821.512 81.75 821.703 81.75C821.758 81.75 821.812 81.75 821.895 81.6953L825.312 79.125H829.25C830.207 79.125 831 78.3594 831 77.375V69.5C831 68.543 830.207 67.75 829.25 67.75ZM829.688 77.375C829.688 77.6211 829.469 77.8125 829.25 77.8125H824.875L824.52 78.0859L822.688 79.4531V77.8125H818.75C818.504 77.8125 818.312 77.6211 818.312 77.375V69.5C818.312 69.2812 818.504 69.0625 818.75 69.0625H829.25C829.469 69.0625 829.688 69.2812 829.688 69.5V77.375ZM820.5 72.5625C820.008 72.5625 819.625 72.9727 819.625 73.4375C819.625 73.9297 820.008 74.3125 820.5 74.3125C820.965 74.3125 821.375 73.9297 821.375 73.4375C821.375 72.9727 820.965 72.5625 820.5 72.5625ZM824 72.5625C823.508 72.5625 823.125 72.9727 823.125 73.4375C823.125 73.9297 823.508 74.3125 824 74.3125C824.465 74.3125 824.875 73.9297 824.875 73.4375C824.875 72.9727 824.465 72.5625 824 72.5625ZM827.5 72.5625C827.008 72.5625 826.625 72.9727 826.625 73.4375C826.625 73.9297 827.008 74.3125 827.5 74.3125C827.965 74.3125 828.375 73.9297 828.375 73.4375C828.375 72.9727 827.965 72.5625 827.5 72.5625Z" fill="white"/>
<rect opacity="0.03" x="734" y="55" width="40" height="40" rx="3" fill="white"/>
<path opacity="0.8" d="M761.586 74.5312L760 73.2188V70.5938C760 70.4844 759.891 70.375 759.781 70.375H758.906C758.77 70.4023 758.688 70.4844 758.688 70.5938V72.1523L754.832 68.9805C754.613 68.7891 754.176 68.6523 753.875 68.6523C753.547 68.6523 753.109 68.7891 752.891 68.9805L746.137 74.5312C746.055 74.6133 746 74.75 746 74.8594C746 74.9414 746.027 75.0781 746.082 75.1328L746.383 75.4883C746.438 75.5703 746.602 75.625 746.711 75.625C746.793 75.625 746.93 75.5977 746.984 75.543L747.75 74.9141V80C747.75 80.4922 748.133 80.875 748.625 80.875H752.125C752.59 80.875 752.973 80.4922 753 80V77.1562H754.75V80C754.75 80.4922 755.133 80.875 755.625 80.875H759.125C759.59 80.875 759.973 80.4922 760 80.0273V74.9141L760.738 75.543C760.793 75.5977 760.93 75.6523 761.012 75.6523C761.121 75.6523 761.285 75.5703 761.367 75.4883L761.641 75.1328C761.695 75.0781 761.75 74.9414 761.75 74.8594C761.75 74.75 761.668 74.6133 761.586 74.5312ZM758.66 79.5625H756.062V76.7188C756.035 76.2539 755.652 75.8711 755.188 75.8438H752.562C752.07 75.8711 751.688 76.2539 751.688 76.7188V79.5625H749.062V73.8477L753.875 69.8828L758.688 73.8477L758.66 79.5625Z" fill="white"/>
<rect opacity="0.1" x="664" y="55" width="40" height="40" rx="3" fill="white"/>
<path opacity="0.8" d="M690.016 68.3789L687.445 67.8047C686.844 67.668 686.242 67.9688 686.023 68.5156L684.82 71.3047C684.602 71.7969 684.738 72.3984 685.176 72.7539L686.27 73.6562C685.504 75.0781 684.301 76.2539 682.879 77.0469L681.977 75.9531C681.621 75.5156 681.02 75.3789 680.527 75.5977L677.738 76.7734C677.191 77.0195 676.891 77.6211 677.027 78.2227L677.602 80.793C677.738 81.3672 678.258 81.75 678.832 81.75C685.531 81.75 691 76.3359 691 69.6094C691 69.0352 690.59 68.5156 690.016 68.3789ZM678.887 80.4375L678.312 77.9766L680.992 76.8281L682.523 78.6875C685.23 77.4023 686.625 76.0078 687.91 73.3008L686.051 71.7695L687.199 69.0898L689.688 69.6641C689.66 75.5977 684.82 80.4102 678.887 80.4375Z" fill="white"/>
<rect opacity="0.03" x="594" y="55" width="40" height="40" rx="3" fill="white"/>
<path opacity="0.8" d="M619.688 69.5H608.312C607.574 69.5 607 70.1016 607 70.8125V78.6875C607 79.4258 607.574 80 608.312 80H619.688C620.398 80 621 79.4258 621 78.6875V70.8125C621 70.1016 620.398 69.5 619.688 69.5ZM619.688 70.8125V71.9336C619.059 72.4531 618.074 73.2188 615.996 74.8594C615.531 75.2148 614.629 76.0898 614 76.0625C613.344 76.0898 612.441 75.2148 611.977 74.8594C609.898 73.2188 608.914 72.4531 608.312 71.9336V70.8125H619.688ZM608.312 78.6875V73.6289C608.914 74.1211 609.816 74.832 611.156 75.8984C611.758 76.3633 612.824 77.4023 614 77.375C615.148 77.4023 616.188 76.3633 616.816 75.8984C618.156 74.832 619.059 74.1211 619.688 73.6289V78.6875H608.312Z" fill="white"/>
</svg>
