<svg width="14" height="15" viewBox="0 0 14 14" fill="none" xmlns="http://www.w3.org/2000/svg">
<path opacity="0.8" d="M7.07 0.96875C3.32391 0.96875 0.28875 4.03125 0.28875 7.75C0.28875 11.4961 3.32391 14.5312 7.07 14.5312C10.7888 14.5312 13.8513 11.4961 13.8513 7.75C13.8513 4.03125 10.7888 0.96875 7.07 0.96875ZM7.07 13.2188C4.03484 13.2188 1.60125 10.7852 1.60125 7.75C1.60125 4.74219 4.03484 2.28125 7.07 2.28125C10.0778 2.28125 12.5388 4.74219 12.5388 7.75C12.5388 10.7852 10.0778 13.2188 7.07 13.2188ZM9.99578 10.457C10.0505 10.4297 10.0778 10.3203 10.0778 10.2383C10.0778 10.1836 10.0505 10.1016 10.0231 10.0469L9.47625 9.30859C9.36688 9.14453 9.14813 9.11719 8.98406 9.25391C8.73797 9.47266 8.08172 9.99219 7.20672 9.99219C5.78484 9.99219 5.04656 8.84375 5.04656 7.72266C5.04656 6.49219 5.86688 5.50781 7.17938 5.50781C7.99969 5.50781 8.62859 5.94531 8.87469 6.13672C9.01141 6.24609 9.2575 6.21875 9.33953 6.05469L9.85906 5.28906C9.88641 5.23438 9.91375 5.15234 9.91375 5.09766C9.91375 5.04297 9.85906 4.93359 9.80438 4.87891C9.55828 4.63281 8.65594 3.92188 7.12469 3.92188C4.96453 3.92188 3.29656 5.5625 3.29656 7.72266C3.29656 9.91016 4.8825 11.6055 7.15203 11.6055C8.73797 11.6055 9.72234 10.7305 9.99578 10.457Z" fill="white"/>
</svg>
