<svg width="395" height="489" viewBox="0 0 395 489" fill="none" xmlns="http://www.w3.org/2000/svg">
<g opacity="0.02">
<path d="M67.1967 280.566C69.6168 339.858 166.097 464.168 288.794 341.39L292.021 338.164C173.357 372.287 120.599 299.927 106.724 226.034C104.95 216.918 31.1377 187.797 37.6719 195.945C57.1131 220.307 63.7279 267.336 67.1967 280.566Z" fill="#452C78"/>
<path d="M310.01 315.334C166.662 271.773 208.448 104.789 197.074 93.4145C164.564 60.9049 82.1207 21.4579 88.0902 31.7028C109.225 67.4391 111.646 149.641 112.452 166.662C119.47 314.689 199.413 359.299 310.01 315.334Z" fill="#452C78"/>
<path d="M321.385 305.574C232.81 204.011 314.044 101.239 302.67 75.506C283.148 31.6221 198.365 -1.29074 201.027 4.84009C215.628 37.3496 217.241 76.3934 217.241 76.3934C199.091 209.82 231.358 272.096 317.997 303.96L321.385 305.574Z" fill="#452C78"/>
<path d="M332.678 297.507C492.887 161.741 314.85 0 314.85 0C327.838 30.8962 320.013 60.5823 320.578 64.2124C326.628 107.128 253.945 184.49 330.258 295.087L332.678 297.507Z" fill="#452C78"/>
<path d="M378.191 277.949L277.4 378.741L306.719 408.06L407.51 307.268L378.191 277.949Z" fill="#452C78"/>
<path d="M297.426 492.241C161.741 332.114 0 510.15 0 510.15C30.8155 497.162 60.5823 504.987 64.1317 504.422C107.048 498.372 184.49 571.055 295.006 494.742L297.426 492.241Z" fill="#452C78"/>
<path d="M307.274 417.468L277.955 446.787L378.746 547.578L408.065 518.259L307.274 417.468Z" fill="#452C78"/>
<path d="M544.434 67.1971C485.142 69.6171 360.832 166.097 483.61 288.794L486.836 292.021C452.713 173.357 525.073 120.6 598.966 106.725C608.162 104.95 637.203 31.1381 629.056 37.6723C604.694 57.1941 557.664 63.7283 544.434 67.1971Z" fill="#452C78"/>
</g>
</svg>
