<svg width="132" height="28" viewBox="0 0 132 28" fill="none" xmlns="http://www.w3.org/2000/svg">
<g clip-path="url(#clip0_1_57)">
<path d="M41 24.8796V17.8853H42.4113L45.6797 22.1908V17.8853H47.1939V24.8796H45.8911L42.5142 20.4365V24.8796H41Z" fill="white"/>
<path d="M51.8279 24.8796V22.122L49.1481 17.8853H50.9422L52.605 20.6945L54.2963 17.8853H56.0391L53.3592 22.0934V24.8796H51.8279Z" fill="white"/>
<path d="M60.8959 24.9885C59.9474 24.9885 59.2046 24.7248 58.6732 24.1974C58.1418 23.67 57.8732 22.896 57.8732 21.8813V17.8853H59.4046V21.8411C59.4046 22.403 59.536 22.8272 59.7988 23.1253C60.0617 23.4234 60.4331 23.5725 60.9073 23.5725C61.3873 23.5725 61.753 23.4292 62.0158 23.1425C62.2787 22.8559 62.4101 22.4431 62.4101 21.8927V17.8853H63.9471V21.8297C63.9471 22.8673 63.6729 23.6585 63.1358 24.1917C62.6044 24.7248 61.8558 24.9885 60.8959 24.9885Z" fill="white"/>
<path d="M72.9866 24.9828C71.8438 24.9828 70.861 24.6102 70.0267 23.8591L70.9352 22.7699C71.6209 23.3374 72.3123 23.6184 73.0151 23.6184C73.6836 23.6184 74.0208 23.4005 74.0208 22.9591V22.9361C74.0208 22.7355 73.9293 22.575 73.7408 22.4488C73.5522 22.3284 73.1808 22.1908 72.6151 22.0475C71.8152 21.8411 71.2495 21.6118 70.9295 21.3653C70.5124 21.0328 70.301 20.5455 70.301 19.9091V19.8862C70.301 19.2555 70.5296 18.7453 70.981 18.3555C71.4381 17.9714 72.0209 17.7764 72.7409 17.7764C73.7294 17.7764 74.5922 18.0745 75.3293 18.665L74.5293 19.8231C73.8722 19.3645 73.2665 19.1352 72.718 19.1352C72.4323 19.1352 72.2095 19.1925 72.0552 19.3071C71.9009 19.4218 71.8209 19.5651 71.8209 19.7486V19.7658C71.8209 19.9951 71.918 20.1614 72.1066 20.276C72.3009 20.3907 72.7066 20.5283 73.3237 20.6888C74.0836 20.8837 74.6264 21.1245 74.9579 21.4169C75.3407 21.7494 75.535 22.208 75.535 22.7871V22.81C75.535 23.4865 75.3007 24.0197 74.8321 24.4038C74.3807 24.7879 73.7579 24.9828 72.9866 24.9828Z" fill="white"/>
<path d="M77.8663 24.8796V17.8853H79.4033V20.6544H82.2317V17.8853H83.763V24.8796H82.2317V22.0704H79.4033V24.8796H77.8663Z" fill="white"/>
<path d="M85.8372 24.8796L88.8255 17.828H90.2369L93.2253 24.8796H91.6196L90.9797 23.3088H88.0313L87.3913 24.8796H85.8372ZM88.5856 21.95H90.4369L89.5112 19.6798L88.5856 21.95Z" fill="white"/>
<path d="M95.2994 24.8796V17.8853H96.7108L99.9791 22.1908V17.8853H101.493V24.8796H100.185L96.8079 20.4365V24.8796H95.2994Z" fill="white"/>
<path d="M107.527 25C106.453 25 105.573 24.6618 104.887 23.9795C104.202 23.303 103.865 22.4373 103.865 21.3997V21.3767C103.865 20.3735 104.213 19.5192 104.91 18.8141C105.607 18.1089 106.476 17.7592 107.522 17.7592C108.596 17.7592 109.51 18.0803 110.259 18.7166L109.293 19.8862C108.727 19.4161 108.122 19.1753 107.47 19.1753C106.916 19.1753 106.442 19.3874 106.053 19.8174C105.665 20.2416 105.47 20.7576 105.47 21.3595V21.3767C105.47 22.0188 105.67 22.5463 106.064 22.9648C106.459 23.3833 106.967 23.5954 107.584 23.5954C108.161 23.5954 108.641 23.4578 109.03 23.1769V22.1736H107.487V20.855H110.51V23.8935C109.636 24.6331 108.641 25 107.527 25Z" fill="white"/>
<path d="M112.967 24.8796V17.8853H114.498V20.6544H117.327V17.8853H118.858V24.8796H117.327V22.0704H114.498V24.8796H112.967Z" fill="white"/>
<path d="M120.932 24.8796L123.921 17.828H125.338L128.326 24.8796H126.72L126.086 23.3088H123.138L122.498 24.8796H120.932ZM123.681 21.95H125.532L124.606 19.6798L123.681 21.95Z" fill="white"/>
<path d="M132 17.8853H130.463V24.8796H132V17.8853Z" fill="white"/>
<path d="M44.3141 4.08026H46.1083V6.70025H49.6166V8.30549H46.1083V11.4357H50.2794V12.9607H41V11.4357H44.3141V4.08026Z" fill="white"/>
<path d="M58.2161 6.74038C58.7875 7.13022 59.3075 7.54873 59.776 7.9959L58.7589 9.13104C58.6046 8.97625 58.3589 8.75266 58.0218 8.46601C57.6847 8.15643 57.4219 7.93284 57.239 7.80672L58.2161 6.74038ZM58.1418 9.55528L59.6217 9.98526C59.5417 10.2432 59.5189 10.335 59.5417 10.2604C59.1532 11.8256 58.8903 12.8518 58.7589 13.3505L57.2847 13.0008C57.6218 11.8771 57.9018 10.7305 58.1418 9.55528ZM58.3761 4.12039C58.9989 4.5905 59.5189 4.98034 59.936 5.29566L58.9246 6.51106C58.6561 6.24734 58.2561 5.89189 57.7133 5.44472C57.5818 5.31859 57.479 5.22686 57.399 5.17527L58.3761 4.12039ZM61.2616 4.04013L62.9358 4.11466C62.8844 4.19492 62.8158 4.30958 62.7415 4.47011C62.6901 4.5733 62.6501 4.65356 62.6272 4.70516H66.5241V5.95495H61.8844C61.8044 6.11548 61.7016 6.2588 61.5702 6.39066H66.1299C66.107 7.14742 66.0899 7.89271 66.0899 8.6208H66.7527V9.87633H66.0499V10.8911H66.6327V12.1065H65.9699C65.9185 12.9435 65.3985 13.3563 64.41 13.3563H63.7072C63.2158 13.3849 62.8501 13.3964 62.6158 13.3964C62.513 13.0581 62.3815 12.6912 62.2273 12.3014H63.0444C63.4043 12.3243 63.6958 12.3415 63.9015 12.3415C64.2386 12.3415 64.4328 12.2613 64.4843 12.1065H59.9246L60.1588 9.87633H59.536V8.61507H60.2788L60.3588 7.60033C60.3302 7.57739 60.3074 7.54873 60.2788 7.52006C59.9417 7.10729 59.656 6.79197 59.4217 6.57985C60.2331 5.88043 60.8388 5.03194 61.2616 4.04013ZM62.8158 10.8853C62.633 10.7535 62.4273 10.5987 62.193 10.421L62.7015 9.8706H61.5702L61.4902 10.8853H62.8158ZM62.8958 8.61507C62.6901 8.46028 62.4673 8.30549 62.233 8.14496L62.7815 7.63473H61.8044L61.7244 8.61507H62.8958ZM64.1414 10.3751L63.6329 10.8796H64.61V10.4152C64.6328 10.1802 64.65 9.99672 64.65 9.86486H63.3643C63.6215 10.0197 63.8843 10.1974 64.1414 10.3751ZM64.2214 8.10483L63.7129 8.61507H64.65C64.65 8.27682 64.6671 7.95004 64.69 7.63473H63.4843C63.5872 7.71499 63.7586 7.81818 63.9929 7.94431C63.9072 7.92711 63.9872 7.97871 64.2214 8.10483Z" fill="white"/>
<path d="M75.7464 9.47503C75.9007 9.45209 76.1978 9.40623 76.6435 9.35463C76.8778 9.32597 77.0321 9.3145 77.112 9.3145V9.43489C77.0606 9.82474 77.0321 10.2318 77.0321 10.6503C76.3064 10.6732 75.655 10.7535 75.0836 10.8853C74.7751 10.914 74.5008 10.9656 74.2665 11.0401L73.798 9.71008C74.1122 9.53235 74.3579 9.29157 74.5408 9.01065C74.6951 8.724 74.8779 8.44882 75.0836 8.19083C74.7465 8.21376 74.3865 8.25389 73.9922 8.31122L73.6037 7.06143C73.6266 7.03276 73.6551 6.99837 73.6837 6.94104C73.8894 6.72891 74.038 6.53973 74.1122 6.35627C74.5294 5.62818 74.8893 4.84276 75.2036 4.00574L76.7235 4.47584C76.335 5.12941 75.8378 5.93776 75.2436 6.90091H75.8664C75.9464 6.76905 76.0378 6.58559 76.1407 6.35054C76.2721 6.11548 76.3635 5.94923 76.4149 5.84603L77.7006 6.51106C77.0721 7.49714 76.4207 8.48895 75.7464 9.47503ZM77.3463 4.55037H82.6888L82.4546 11.7453H83.1174V13.1155H76.8778V12.6855C75.5007 12.8403 74.4836 12.9722 73.838 13.0754L73.6437 11.6249C74.9693 11.5217 76.1121 11.4013 77.0721 11.2752C77.0492 11.4357 77.0321 11.5848 77.0321 11.7453H78.0091L78.1634 9.51516H77.2663V8.10484H78.2777L78.432 5.99509H77.3406V4.55037H77.3463ZM79.7233 9.51516L79.529 11.7453H80.8947L80.9747 9.51516H79.7233ZM81.0889 5.99509H79.9976L79.8033 8.10484H81.0089L81.0889 5.99509Z" fill="white"/>
<path d="M92.4596 9.47502C92.6939 9.45209 93.071 9.40049 93.591 9.32023C93.7453 9.2973 93.8653 9.2801 93.9453 9.2801V9.47502C93.8938 9.84193 93.8653 10.2318 93.8653 10.6503C93.711 10.679 93.4767 10.6904 93.1624 10.6904C92.4311 10.742 91.9282 10.7936 91.6425 10.8452C91.254 10.9255 90.9683 10.9771 90.7854 11L90.3512 9.67567C90.5855 9.57248 90.8312 9.33743 91.0883 8.97052C91.294 8.73546 91.4768 8.47748 91.6311 8.19083C91.214 8.21376 90.854 8.25389 90.5398 8.31122L90.1112 7.06142C90.3226 6.90663 90.4998 6.66585 90.6597 6.35627C91.054 5.6683 91.4311 4.88862 91.7911 4L93.311 4.47011C92.8196 5.43325 92.3339 6.24161 91.8711 6.89517H92.4539C92.6596 6.52826 92.8539 6.17854 93.0367 5.84029L94.1681 6.38493C94.6595 5.65111 95.0252 4.85995 95.2595 4L96.8994 4.31532C96.7451 4.73382 96.5851 5.1122 96.4308 5.45045H99.3163C99.2878 7.59459 99.2249 9.56102 99.1221 11.3612C99.0935 12.6396 98.4478 13.2473 97.1736 13.2015H95.4937C95.4709 12.9664 95.4023 12.5995 95.2995 12.1065C95.2709 11.8943 95.248 11.751 95.2195 11.6765C95.5852 11.6994 96.0937 11.7109 96.7394 11.7109C97.2879 11.7396 97.5565 11.493 97.5565 10.9713C97.6079 10.3694 97.6593 9.02785 97.7107 6.94103H95.608C95.3737 7.30794 95.088 7.72645 94.7509 8.19656C94.6709 8.09337 94.5395 7.94431 94.3624 7.76658C94.1795 7.5602 94.0367 7.41687 93.9338 7.33661C93.8538 7.46847 93.7396 7.65192 93.5796 7.88698C93.3281 8.23669 92.951 8.77559 92.4596 9.47502ZM90.3912 13.0352L90.1569 11.6306C90.5226 11.6077 91.2254 11.5274 92.2596 11.3956C93.0653 11.321 93.6881 11.2523 94.1338 11.2007V11.3956C94.0824 11.9173 94.0538 12.3071 94.0538 12.5708C93.1167 12.6683 91.894 12.8288 90.3912 13.0352ZM95.3395 7.87551C95.9337 8.55774 96.4422 9.16544 96.8594 9.71581L95.6137 10.6159C95.248 10.0426 94.7795 9.38903 94.2081 8.66093L95.3395 7.87551Z" fill="white"/>
<path d="M106.653 6.42506H110.201C110.253 5.27846 110.281 4.51024 110.281 4.12039H112.036C111.984 5.05487 111.956 5.82883 111.956 6.42506H115.544V7.99017H111.956C112.373 9.97379 113.658 11.2465 115.812 11.8256C115.71 11.9574 115.55 12.1351 115.344 12.3702C115.007 12.783 114.772 13.104 114.641 13.3047C112.875 12.6282 111.693 11.5045 111.093 9.94513C110.647 11.3038 109.43 12.4619 107.43 13.4251C107.093 12.8804 106.727 12.4046 106.339 12.0147C108.63 11.1319 109.876 9.7846 110.081 7.98444H106.653V6.42506Z" fill="white"/>
<path d="M122.875 9.7502H127.006L128.023 9.00491H124.321V8.22522H122.955V5.72563H124.201C123.966 5.33006 123.703 4.87715 123.423 4.35545L125.098 4.04586C125.406 4.51597 125.68 4.95741 125.915 5.37592L124.475 5.72563H128.526C128.606 5.57084 128.732 5.34726 128.92 5.06061C129.206 4.61916 129.412 4.28092 129.543 4.04586L131.337 4.39558C131.234 4.52744 131.074 4.74529 130.869 5.06061C130.663 5.34726 130.503 5.57084 130.4 5.72563H131.84V8.23096H130.514V8.93038L129.229 9.7502H132V11.1605H128.566V11.9402C128.589 12.8804 128.097 13.3448 127.086 13.3448H125.252C125.172 12.8231 125.069 12.353 124.938 11.9402C125.303 11.9631 125.743 11.9803 126.263 11.9803C126.755 12.0319 126.977 11.837 126.926 11.3898V11.1548H122.875V9.7502ZM124.509 7.64046H130.28V7.13022H124.509V7.64046ZM127.669 4C127.955 4.44144 128.229 4.90008 128.486 5.37019L126.772 5.60524C126.669 5.42179 126.629 5.35872 126.652 5.41032C126.366 4.88862 126.143 4.48731 125.989 4.20066L127.669 4Z" fill="white"/>
</g>
<g clip-path="url(#clip1_1_57)">
<path d="M2.2806 9.52226C2.36273 11.5346 5.6372 15.7536 9.80147 11.5866L9.91099 11.4771C5.88361 12.6352 4.09305 10.1793 3.62214 7.67147C3.56191 7.3621 1.05678 6.37373 1.27854 6.65025C1.93837 7.47709 2.16287 9.07325 2.2806 9.52226Z" fill="white"/>
<path d="M10.5216 10.7023C5.65642 9.22382 7.07463 3.55647 6.68859 3.17043C5.58524 2.06708 2.78716 0.728271 2.98976 1.07598C3.70707 2.28885 3.78921 5.07872 3.81659 5.6564C4.05478 10.6804 6.76799 12.1944 10.5216 10.7023Z" fill="white"/>
<path d="M10.9076 10.371C7.90141 6.92402 10.6584 3.436 10.2724 2.56263C9.60983 1.07324 6.73235 -0.0438077 6.8227 0.164269C7.31825 1.26762 7.37301 2.59274 7.37301 2.59274C6.75699 7.12115 7.85213 9.23477 10.7926 10.3162L10.9076 10.371Z" fill="white"/>
<path d="M11.2909 10.0972C16.7283 5.48939 10.6858 0 10.6858 0C11.1266 1.0486 10.861 2.05613 10.8802 2.17933C11.0855 3.63587 8.61874 6.26147 11.2087 10.0151L11.2909 10.0972Z" fill="white"/>
<path d="M12.8356 9.43342L9.41479 12.8542L10.4099 13.8493L13.8307 10.4285L12.8356 9.43342Z" fill="white"/>
<path d="M9.52226 25.7194C11.5346 25.6372 15.7536 22.3655 11.5866 18.1985L11.4771 18.089C12.6352 22.1164 10.1793 23.9069 7.67147 24.3778C7.3621 24.4353 6.37373 26.9432 6.65025 26.7214C7.47435 26.0589 9.07325 25.8371 9.52226 25.7194Z" fill="white"/>
<path d="M10.7023 17.4785C9.22382 22.3436 3.55647 20.9281 3.17043 21.3114C2.06708 22.4175 0.728271 25.2156 1.07598 25.0103C2.29158 24.293 5.07872 24.2108 5.6564 24.1835C10.6776 23.9453 12.1944 21.232 10.7023 17.4785Z" fill="white"/>
<path d="M10.371 17.0924C6.92402 20.0986 3.436 17.3416 2.56263 17.7276C1.07324 18.3901 -0.0438077 21.2676 0.164269 21.1773C1.26762 20.6817 2.59274 20.627 2.59274 20.627C7.12115 21.243 9.23477 20.1478 10.3162 17.2074L10.371 17.0924Z" fill="white"/>
<path d="M10.0945 16.7064C5.48939 11.2717 0 17.3142 0 17.3142C1.04586 16.8734 2.05613 17.139 2.17659 17.1198C3.63313 16.9145 6.26147 19.3813 10.0123 16.7913L10.0945 16.7064Z" fill="white"/>
<path d="M10.4287 14.1686L9.43359 15.1637L12.8544 18.5845L13.8495 17.5894L10.4287 14.1686Z" fill="white"/>
<path d="M25.7194 18.4778C25.6373 16.4654 22.3656 12.2464 18.1986 16.4134L18.0891 16.5229C22.1164 15.3648 23.907 17.8207 24.3779 20.3285C24.4381 20.6379 26.9433 21.6263 26.7215 21.3498C26.0589 20.5229 25.8344 18.9268 25.7194 18.4778Z" fill="white"/>
<path d="M17.4785 17.2978C22.3436 18.7762 20.9254 24.4435 21.3114 24.8296C22.4148 25.9329 25.2129 27.2717 25.0103 26.9268C24.293 25.7112 24.2108 22.924 24.1835 22.3436C23.9425 17.3224 21.2293 15.8056 17.4785 17.2978Z" fill="white"/>
<path d="M17.0924 17.629C20.0986 21.076 17.3416 24.564 17.7276 25.4374C18.3901 26.9268 21.2676 28.0411 21.1773 27.8357C20.6817 26.7351 20.627 25.4073 20.627 25.4073C21.243 20.8789 20.1478 18.7652 17.2074 17.6838L17.0924 17.629Z" fill="white"/>
<path d="M16.7064 17.9028C11.2718 22.5106 17.3115 28 17.3115 28C16.8707 26.9542 17.1362 25.9439 17.1171 25.8234C16.9117 24.3669 19.3785 21.7386 16.7885 17.9877L16.7064 17.9028Z" fill="white"/>
<path d="M17.5908 14.1495L14.17 17.5708L15.1652 18.5659L18.586 15.1446L17.5908 14.1495Z" fill="white"/>
<path d="M18.4778 2.28063C16.4654 2.36276 12.2464 5.63723 16.4134 9.80151L16.5229 9.91102C15.3648 5.88364 17.8207 4.09309 20.3285 3.62218C20.6407 3.56194 21.6263 1.05681 21.3498 1.27857C20.5229 1.94113 18.9268 2.1629 18.4778 2.28063Z" fill="white"/>
<path d="M17.295 10.5216C18.7735 5.65639 24.4408 7.07186 24.8269 6.68856C25.9329 5.58521 27.2718 2.78713 26.924 2.98973C25.7084 3.70704 22.9213 3.78918 22.3409 3.81656C17.3197 4.05475 15.8056 6.76796 17.295 10.5216Z" fill="white"/>
<path d="M17.6263 10.9076C21.0732 7.90142 24.5613 10.6584 25.4346 10.2751C26.924 9.61258 28.0411 6.73236 27.833 6.82545C26.7296 7.321 25.4045 7.37576 25.4045 7.37576C20.8761 6.75974 18.7625 7.85488 17.681 10.7953L17.6263 10.9076Z" fill="white"/>
<path d="M17.9028 11.2936C22.5106 16.731 27.9973 10.6886 27.9973 10.6886C26.9514 11.1294 25.9412 10.8638 25.8207 10.883C24.3642 11.0883 21.7386 8.62149 17.985 11.2115L17.9028 11.2936Z" fill="white"/>
<path d="M15.1447 9.41454L14.1496 10.4096L17.5704 13.8304L18.5655 12.8353L15.1447 9.41454Z" fill="white"/>
</g>
<defs>
<clipPath id="clip0_1_57">
<rect width="91" height="21" fill="white" transform="translate(41 4)"/>
</clipPath>
<clipPath id="clip1_1_57">
<rect width="28" height="28" fill="white"/>
</clipPath>
</defs>
</svg>
