<svg width="16" height="12" viewBox="0 0 14 15" fill="none" xmlns="http://www.w3.org/2000/svg">
<path opacity="0.5" d="M6.97266 0.96875C5.16797 0.996094 3.52734 1.70703 2.29688 2.85547L1.3125 1.87109C0.902344 1.46094 0.21875 1.76172 0.21875 2.33594V6C0.21875 6.38281 0.492188 6.65625 0.875 6.65625H4.53906C5.11328 6.65625 5.41406 5.97266 5.00391 5.5625L3.85547 4.41406C4.70312 3.62109 5.79688 3.18359 6.94531 3.18359C9.46094 3.15625 11.5938 5.17969 11.5664 7.80469C11.5664 10.293 9.54297 12.3438 7 12.3438C5.85156 12.3438 4.8125 11.9609 3.96484 11.2227C3.82812 11.1133 3.63672 11.1133 3.52734 11.2227L2.43359 12.3164C2.29688 12.4531 2.29688 12.6719 2.43359 12.8086C3.63672 13.875 5.25 14.5312 7 14.5312C10.7188 14.5312 13.7539 11.4961 13.7812 7.77734C13.7812 4.03125 10.7188 0.96875 6.97266 0.96875Z" fill="#615D66"/>
</svg>
